HIERARCHY
ROOT Hips
{
	OFFSET -3.958830 18.904000 13.208200
	CHANNELS 6 Xposition Yposition Zposition Zrotation Yrotation Xrotation 
	JOINT LHipJoint
	{
		OFFSET 0.000000 0.000000 0.000000
		CHANNELS 3 Zrotation Yrotation Xrotation
		JOINT LeftUpLeg
		{
			OFFSET 1.800000 -1.400000 0.085000
			CHANNELS 3 Zrotation Yrotation Xrotation
			JOINT LeftLeg
			{
				OFFSET 2.215000 -6.000000 0.000000
				CHANNELS 3 Zrotation Yrotation Xrotation
				JOINT LeftFoot
				{
					OFFSET 2.500000 -6.900000 0.000000
					CHANNELS 3 Zrotation Yrotation Xrotation
					JOINT LeftToeBase
					{
						OFFSET 0.200000 -0.500000 1.950000
						CHANNELS 3 Zrotation Yrotation Xrotation
						End Site
						{
							OFFSET 0.000000 0.000000 0.000000
						}
					}
				}
			}
		}
	}
	JOINT RHipJoint
	{
		OFFSET 0.000000 0.000000 0.000000
		CHANNELS 3 Zrotation Yrotation Xrotation
		JOINT RightUpLeg
		{
			OFFSET -1.800000 -1.400000 0.085000
			CHANNELS 3 Zrotation Yrotation Xrotation
			JOINT RightLeg
			{
				OFFSET -2.215000 -6.000000 0.000000
				CHANNELS 3 Zrotation Yrotation Xrotation
				JOINT RightFoot
				{
					OFFSET -2.500000 -6.900000 0.000000
					CHANNELS 3 Zrotation Yrotation Xrotation
					JOINT RightToeBase
					{
						OFFSET -0.200000 -0.500000 1.950000
						CHANNELS 3 Zrotation Yrotation Xrotation
						End Site
						{
							OFFSET 0.000000 0.000000 0.000000
						}
					}
				}
			}
		}
	}
	JOINT LowerBack
	{
		OFFSET 0.000000 0.000000 0.000000
		CHANNELS 3 Zrotation Yrotation Xrotation
		JOINT Spine
		{
			OFFSET -0.087000 1.940000 -0.288900
			CHANNELS 3 Zrotation Yrotation Xrotation
			JOINT Spine1
			{
				OFFSET 0.000000 1.950000 0.060000
				CHANNELS 3 Zrotation Yrotation Xrotation
				JOINT Neck
				{
					OFFSET 0.000000 0.000000 0.000000
					CHANNELS 3 Zrotation Yrotation Xrotation
					JOINT Neck1
					{
						OFFSET 0.000000 1.600000 0.340000
						CHANNELS 3 Zrotation Yrotation Xrotation
						JOINT Head
						{
							OFFSET 0.000000 1.667000 -0.240000
							CHANNELS 3 Zrotation Yrotation Xrotation
							End Site
							{
								OFFSET 0.000000 0.000000 0.000000
							}
						}
					}
				}
				JOINT LeftShoulder
				{
					OFFSET 0.000000 0.000000 0.000000
					CHANNELS 3 Zrotation Yrotation Xrotation
					JOINT LeftArm
					{
						OFFSET 2.700000 1.550000 -0.730000
						CHANNELS 3 Zrotation Yrotation Xrotation
						JOINT LeftForeArm
						{
							OFFSET 5.450000 0.000000 0.000000
							CHANNELS 3 Zrotation Yrotation Xrotation
							JOINT LeftHand
							{
								OFFSET 3.450000 0.000000 0.000000
								CHANNELS 3 Zrotation Yrotation Xrotation
								JOINT LeftHandIndex1
								{
									OFFSET 0.750000 0.000000 0.000000
									CHANNELS 3 Zrotation Yrotation Xrotation
									End Site
									{
										OFFSET 0.000000 0.000000 0.000000
									}
								}
							}
						}
					}
				}
				JOINT RightShoulder
				{
					OFFSET 0.000000 0.000000 0.000000
					CHANNELS 3 Zrotation Yrotation Xrotation
					JOINT RightArm
					{
						OFFSET -2.700000 1.550000 -0.730000
						CHANNELS 3 Zrotation Yrotation Xrotation
						JOINT RightForeArm
						{
							OFFSET -5.450000 0.000000 0.000000
							CHANNELS 3 Zrotation Yrotation Xrotation
							JOINT RightHand
							{
								OFFSET -3.450000 0.000000 0.000000
								CHANNELS 3 Zrotation Yrotation Xrotation
								JOINT RightHandIndex1
								{
									OFFSET -0.750000 0.000000 0.000000
									CHANNELS 3 Zrotation Yrotation Xrotation
									End Site
									{
										OFFSET 0.000000 0.000000 0.000000
									}
								}
							}
						}
					}
				}
			}
		}
	}
}
MOTION
Frames: 4
Frame Time: 0.016667
0.502120 17.324450 -4.657060 -2.893238 -10.221098 2.108381 -15.004892 12.781290 3.353726 5.101886 -2.175991 -16.047670 -14.392586 6.003913 7.429910 -0.054215 3.903221 3.251888 0.144250 0.107900 -0.120600 18.393646 -10.907861 3.043943 -1.093220 -0.705378 -4.036290 7.972388 -4.492095 6.459657 -0.181676 -3.764105 3.222874 0.157390 0.306370 -0.029200 -3.832042 -1.014643 -7.814020 10.322200 0.664540 13.648691 -16.065987 3.930116 -1.928394 9.034528 -11.888967 -6.099517 -23.846111 8.591706 34.596044 2.397750 -2.474440 -0.215370 -18.051846 14.127308 -1.541407 -56.284448 2.218845 -11.358666 42.936907 -76.119550 -33.309913 -3.299897 2.631908 0.000830 0.113800 -0.206030 0.181880 -1.621761 -3.276478 0.323835 -19.700610 -8.608231 -0.352072 -79.435243 28.449211 -16.672013 2.862009 -1.931031 -0.111150 0.219150 0.039530 0.060670 
0.497150 17.328340 -4.662870 -2.832017 -10.312501 1.974508 -15.007958 12.783883 3.379095 5.263445 -2.153960 -15.916915 -14.725284 6.027834 7.224340 -0.040529 3.940825 3.235729 0.148270 0.114980 -0.123690 18.387620 -10.901896 3.037099 -1.068595 -0.707671 -3.963556 7.800770 -4.477498 6.598675 -0.182408 -3.758390 3.223435 0.159520 0.302030 -0.029440 -3.816458 -1.038262 -7.835831 10.217931 0.839920 14.148591 -15.765531 4.077772 -2.200762 8.840806 -12.129398 -6.127494 -24.593915 8.587399 34.735551 2.408010 -2.749720 -0.288470 -18.386799 13.854930 -1.542351 -56.008415 2.036711 -11.326588 41.124083 -76.026428 -32.173996 -3.310759 2.692292 0.000110 0.108300 -0.203100 0.182960 -0.943286 -2.755712 0.208473 -20.455835 -8.243622 -0.856289 -81.565371 23.555512 -14.192794 2.888340 -1.947614 -0.105430 0.218070 0.039240 0.064750 
0.494850 17.317310 -4.671280 -2.804597 -10.035510 2.372647 -14.979069 12.722429 3.389384 5.177758 -2.215767 -16.296982 -14.677243 5.912583 6.965999 -0.046256 3.901008 3.260094 0.131480 0.103310 -0.154050 18.417891 -10.933449 3.044761 -0.911973 -0.587276 -4.466019 7.796382 -4.413744 6.596040 -0.156019 -3.737971 3.234311 0.159890 0.332850 -0.029420 -3.907275 -0.875221 -7.831590 10.588330 1.180546 14.220595 -15.652186 4.193571 -2.696622 8.489587 -12.280623 -5.860409 -24.635122 7.983283 34.204558 2.376100 -3.312070 0.173050 -18.800800 13.612521 -1.645519 -55.079345 2.095065 -11.357170 36.867217 -75.677411 -29.187115 -3.364628 2.834635 -0.026560 0.128620 -0.227640 0.191050 0.009088 -2.330521 -0.083429 -21.533761 -7.847195 -1.608690 -86.809188 15.516731 -9.659827 2.926377 -1.977967 -0.109840 0.224140 0.050130 0.080180 
0.490560 17.312990 -4.691480 -2.892657 -9.779312 2.592354 -14.987273 12.749587 3.401868 5.127926 -2.264302 -16.829127 -14.242620 5.812858 7.102300 -0.056388 3.846584 3.284505 0.110270 0.081230 -0.187530 18.398640 -10.941638 3.056381 -0.692265 -0.446229 -4.922040 7.844168 -4.401067 6.949875 -0.124575 -3.717141 3.244643 0.152420 0.362930 -0.025860 -3.865427 -0.888897 -7.863101 10.496656 1.792166 15.069639 -14.758084 4.562143 -3.633414 8.239233 -12.388820 -5.632366 -24.720219 7.332897 33.762309 2.466240 -3.981720 0.787090 -19.536546 13.295520 -1.861140 -54.543278 1.651383 -11.101641 29.988425 -75.208909 -24.511774 -3.428099 3.014667 -0.050720 0.147330 -0.253060 0.197200 1.170315 -1.603663 -0.478675 -23.003298 -7.803460 -2.469839 -94.311599 6.762719 -3.198536 2.947030 -1.996709 -0.112770 0.223740 0.064940 0.094990 
